<svg xmlns="http://www.w3.org/2000/svg" xmlns:xlink="http://www.w3.org/1999/xlink" viewBox="0 0 120 120"><defs><style>.cls-1{isolation:isolate;}.cls-2{fill:none;}.cls-3{fill:#1ab3e2;}.cls-4{opacity:0.4;fill:url(#무제_그라디언트_3);}.cls-4,.cls-5{mix-blend-mode:overlay;}.cls-5{fill:url(#무제_그라디언트_3-2);}.cls-6{fill:url(#무제_그라디언트_130);}.cls-7{fill:#fff;}</style><linearGradient id="무제_그라디언트_3" x1="60" y1="60" x2="60" y2="110" gradientUnits="userSpaceOnUse"><stop offset="0" stop-color="#fff" stop-opacity="0.2"/><stop offset="1" stop-color="#fff"/></linearGradient><linearGradient id="무제_그라디언트_3-2" x1="60" y1="25.009" x2="60" y2="94.991" gradientTransform="translate(60 144.853) rotate(-135)" xlink:href="#무제_그라디언트_3"/><linearGradient id="무제_그라디언트_130" x1="58.612" y1="78.535" x2="58.612" y2="43.733" gradientUnits="userSpaceOnUse"><stop offset="0" stop-color="#2a385f"/><stop offset="1" stop-color="#15202b"/></linearGradient></defs><title>c2</title><g class="cls-1"><g id="레이어_2" data-name="레이어 2"><g id="레이어_1-2" data-name="레이어 1"><rect class="cls-2" width="120" height="120"/><rect class="cls-3" x="24.645" y="24.645" width="70.711" height="70.711" transform="translate(144.853 60) rotate(135)"/><polygon class="cls-4" points="10 60 60 110 110 60 10 60"/><rect class="cls-5" x="35.258" y="35.258" width="49.485" height="49.485" transform="translate(144.853 60) rotate(135)"/><path class="cls-6" d="M43.594,78.535,53.77,67.979c1.977-2.058,3.543-3.819,4.653-5.232a28.356,28.356,0,0,0,2.427-3.506,8.166,8.166,0,0,0,.887-2.041,6.31,6.31,0,0,0,.17-1.272,2.607,2.607,0,0,0-.143-.856,1.926,1.926,0,0,0-.377-.652,1.877,1.877,0,0,0-.6-.448,1.911,1.911,0,0,0-.828-.155,1.655,1.655,0,0,0-1.4.535,2.423,2.423,0,0,0-.547,1.658A8.361,8.361,0,0,0,58.12,57.1l.251,1.754H46.289V57.321a14.753,14.753,0,0,1,.991-5.488A12.745,12.745,0,0,1,50.1,47.5a12.525,12.525,0,0,1,4.317-2.8,14.646,14.646,0,0,1,5.378-.967,15.144,15.144,0,0,1,5.314.917,13,13,0,0,1,4.3,2.607,12.1,12.1,0,0,1,2.863,4.009A12.3,12.3,0,0,1,73.3,56.3a11.846,11.846,0,0,1-1.251,5.386,18.114,18.114,0,0,1-3.778,4.829l-2.29,2.144H73.63v9.879Z"/><path class="cls-7" d="M59.8,45.27a13.525,13.525,0,0,1,4.776.82,11.419,11.419,0,0,1,3.792,2.3,10.543,10.543,0,0,1,2.5,3.5,10.733,10.733,0,0,1,.9,4.407,10.278,10.278,0,0,1-1.086,4.693A16.541,16.541,0,0,1,67.215,65.4l-5.124,4.8h10V77H47.211l7.666-7.952q3.033-3.158,4.755-5.35a29.625,29.625,0,0,0,2.562-3.71,9.8,9.8,0,0,0,1.045-2.459,7.789,7.789,0,0,0,.205-1.6,4.174,4.174,0,0,0-.225-1.353,3.484,3.484,0,0,0-.677-1.168A3.277,3.277,0,0,0,59.96,52.28,3.208,3.208,0,0,0,57.4,53.345a3.929,3.929,0,0,0-.923,2.665,10.03,10.03,0,0,0,.123,1.311H47.826a13.176,13.176,0,0,1,.881-4.918,11.163,11.163,0,0,1,2.48-3.813,10.968,10.968,0,0,1,3.792-2.459A13.071,13.071,0,0,1,59.8,45.27m0-3.074a16.192,16.192,0,0,0-5.94,1.073,14.063,14.063,0,0,0-4.841,3.147,14.245,14.245,0,0,0-3.163,4.85,16.3,16.3,0,0,0-1.1,6.055V60.4H58.271q-.47.654-1.058,1.4c-1.079,1.374-2.611,3.1-4.553,5.117L45,74.864l-5.021,5.208h35.19V67.119H69.853a18.91,18.91,0,0,0,3.57-4.743A13.37,13.37,0,0,0,74.84,56.3a13.835,13.835,0,0,0-1.167-5.654,13.648,13.648,0,0,0-3.225-4.517,14.539,14.539,0,0,0-4.8-2.916A16.663,16.663,0,0,0,59.8,42.2Zm-.09,13.181a1.112,1.112,0,0,1,.255-.023.825.825,0,0,1,.194.016.376.376,0,0,1,.083.071.39.39,0,0,1,.075.136,1.072,1.072,0,0,1,.057.351,4.754,4.754,0,0,1-.135.946,5.04,5.04,0,0,1-.441,1.078l-.151-1.063a7.183,7.183,0,0,1-.092-.879.941.941,0,0,1,.155-.633Z"/></g></g></g></svg>