<svg xmlns="http://www.w3.org/2000/svg" xmlns:xlink="http://www.w3.org/1999/xlink" viewBox="0 0 120 120"><defs><style>.cls-1{isolation:isolate;}.cls-2{fill:none;}.cls-3{fill:#1ab3e2;}.cls-4{opacity:0.4;fill:url(#무제_그라디언트_3);}.cls-4,.cls-7{mix-blend-mode:overlay;}.cls-5{fill:url(#무제_그라디언트_51);}.cls-6{fill:url(#무제_그라디언트_51-2);}.cls-7{fill:url(#무제_그라디언트_3-2);}.cls-8{fill:url(#무제_그라디언트_130);}.cls-9{fill:#fff;}.cls-10{fill:url(#무제_그라디언트_51-3);}</style><linearGradient id="무제_그라디언트_3" x1="60" y1="60" x2="60" y2="103.84" gradientUnits="userSpaceOnUse"><stop offset="0" stop-color="#fff" stop-opacity="0.2"/><stop offset="1" stop-color="#fff"/></linearGradient><linearGradient id="무제_그라디언트_51" x1="110" y1="85" x2="10" y2="85" gradientUnits="userSpaceOnUse"><stop offset="0" stop-color="#f5f5f5"/><stop offset="0.234" stop-color="#f0f3f2"/><stop offset="0.441" stop-color="#c2c3c5"/><stop offset="0.786" stop-color="#f9f9f9"/><stop offset="0.998" stop-color="#dadbdc"/></linearGradient><linearGradient id="무제_그라디언트_51-2" x1="10" y1="35" x2="110" y2="35" xlink:href="#무제_그라디언트_51"/><linearGradient id="무제_그라디언트_3-2" x1="60" y1="25.009" x2="60" y2="94.991" gradientTransform="translate(60 144.853) rotate(-135)" xlink:href="#무제_그라디언트_3"/><linearGradient id="무제_그라디언트_130" x1="58.612" y1="78.535" x2="58.612" y2="43.733" gradientUnits="userSpaceOnUse"><stop offset="0" stop-color="#2a385f"/><stop offset="1" stop-color="#15202b"/></linearGradient><linearGradient id="무제_그라디언트_51-3" x1="59.864" y1="118.473" x2="59.864" y2="62.348" xlink:href="#무제_그라디언트_51"/></defs><title>c2s</title><g class="cls-1"><g id="레이어_2" data-name="레이어 2"><g id="레이어_1-2" data-name="레이어 1"><rect class="cls-2" width="120" height="120"/><rect class="cls-3" x="29" y="29" width="61.999" height="61.999" transform="translate(144.853 60) rotate(135)"/><polygon class="cls-4" points="16.16 60 60 103.84 103.84 60 16.16 60"/><polygon class="cls-5" points="103.84 60 60 103.84 16.16 60 10 60 60 110 110 60 103.84 60"/><polygon class="cls-6" points="60 10 10 60 16.16 60 60 16.16 103.84 60 110 60 60 10"/><rect class="cls-7" x="35.258" y="35.258" width="49.485" height="49.485" transform="translate(144.853 60) rotate(135)"/><path class="cls-8" d="M43.6,78.535,53.77,67.979c1.974-2.055,3.541-3.815,4.653-5.232a28.36,28.36,0,0,0,2.427-3.506,8.184,8.184,0,0,0,.887-2.041,6.3,6.3,0,0,0,.17-1.272,2.6,2.6,0,0,0-.143-.855,1.912,1.912,0,0,0-.378-.652,1.85,1.85,0,0,0-.6-.449,1.911,1.911,0,0,0-.828-.155,1.652,1.652,0,0,0-1.4.536,2.423,2.423,0,0,0-.546,1.657,8.4,8.4,0,0,0,.107,1.095l.249,1.754H46.289V57.322a14.773,14.773,0,0,1,.99-5.488A12.744,12.744,0,0,1,50.1,47.5a12.53,12.53,0,0,1,4.316-2.8,14.674,14.674,0,0,1,5.378-.967,15.136,15.136,0,0,1,5.314.917,13,13,0,0,1,4.3,2.607,12.11,12.11,0,0,1,2.863,4.01A12.293,12.293,0,0,1,73.3,56.3a11.846,11.846,0,0,1-1.251,5.386,18.123,18.123,0,0,1-3.778,4.83l-2.29,2.143H73.63v9.879Z"/><path class="cls-9" d="M59.8,45.27a13.547,13.547,0,0,1,4.776.82,11.419,11.419,0,0,1,3.792,2.3,10.547,10.547,0,0,1,2.5,3.5,10.728,10.728,0,0,1,.9,4.406,10.275,10.275,0,0,1-1.086,4.693A16.557,16.557,0,0,1,67.215,65.4l-5.124,4.8h10V77H47.211l7.666-7.952Q57.91,65.89,59.632,63.7a29.625,29.625,0,0,0,2.562-3.71,9.8,9.8,0,0,0,1.045-2.459,7.789,7.789,0,0,0,.205-1.6,4.164,4.164,0,0,0-.225-1.352,3.479,3.479,0,0,0-.677-1.169A3.285,3.285,0,0,0,59.96,52.28,3.209,3.209,0,0,0,57.4,53.346a3.926,3.926,0,0,0-.923,2.664,10.057,10.057,0,0,0,.123,1.312H47.826a13.181,13.181,0,0,1,.881-4.919,11.163,11.163,0,0,1,2.48-3.813,10.968,10.968,0,0,1,3.792-2.459A13.071,13.071,0,0,1,59.8,45.27m0-3.074a16.183,16.183,0,0,0-5.939,1.073,14.058,14.058,0,0,0-4.842,3.147,14.255,14.255,0,0,0-3.163,4.85,16.3,16.3,0,0,0-1.1,6.056V60.4H58.271q-.471.654-1.058,1.4c-1.08,1.376-2.612,3.1-4.553,5.117L45,74.864l-5.021,5.208h35.19V67.119H69.853a18.922,18.922,0,0,0,3.57-4.743A13.363,13.363,0,0,0,74.84,56.3a13.835,13.835,0,0,0-1.167-5.654,13.634,13.634,0,0,0-3.225-4.516,14.512,14.512,0,0,0-4.8-2.916A16.65,16.65,0,0,0,59.8,42.2Zm-.09,13.182a1.035,1.035,0,0,1,.255-.024.825.825,0,0,1,.194.016.379.379,0,0,1,.158.208,1.066,1.066,0,0,1,.057.35,4.745,4.745,0,0,1-.135.946,5.018,5.018,0,0,1-.441,1.078l-.151-1.063a7.183,7.183,0,0,1-.092-.879.935.935,0,0,1,.155-.632Z"/><g id="layer1"><path id="path8735" class="cls-10" d="M26.225,62.348c-.63,6.261-5.239,4.544-3.068,12.805C28.6,71.994,27.37,67.5,26.225,62.348Zm67.277,0c-1.145,5.154-2.379,9.646,3.068,12.805C98.741,66.892,94.132,68.609,93.5,62.348ZM13.121,64.355c1.077,10.125,4.738,13.4,9.6,13.5C21.851,68.814,18.5,71.266,13.121,64.355Zm93.485,0c-5.378,6.911-8.734,4.459-9.6,13.5C101.864,77.751,105.529,74.48,106.606,64.355ZM29.5,70.547c1.125,6.9-4.318,6.376.388,14.618C34.825,80.208,32.211,75.749,29.5,70.547Zm60.726,0c-2.712,5.2-5.33,9.661-.393,14.618C94.538,76.923,89.1,77.447,90.226,70.547ZM16.008,76.46c4.068,10.557,8.94,13.014,14.183,11.725C26.662,78.734,23.768,82.33,16.008,76.46Zm87.706,0c-7.759,5.87-10.649,2.274-14.178,11.725C94.779,89.474,99.647,87.017,103.714,76.46ZM35.053,77.989c3.315,7.025-2.655,8.136,4.9,15.5C43.7,86.681,39.542,82.714,35.053,77.989Zm49.616,0c-4.489,4.726-8.65,8.692-4.895,15.5C87.324,86.125,81.354,85.014,84.669,77.989ZM42.7,83.925c5.8,6.388-.18,9.509,10.234,14.879C54.712,90.352,49,87.488,42.7,83.925Zm34.329,0C70.723,87.488,65.015,90.352,66.794,98.8c10.414-5.37,4.43-8.491,10.234-14.879ZM22.462,88.441C30.039,98.472,35.993,99.6,41.2,96.621,34.535,87.608,32.546,92.334,22.462,88.441Zm74.8,0c-10.085,3.893-12.068-.833-18.732,8.18C83.735,99.6,89.684,98.471,97.262,88.441ZM46.354,97.852c-3.435-.013-6.525,1.78-13.638,1.269,11.309,8.2,18,7.463,22.566,2.6-4.066-3.011-6.577-3.863-8.928-3.872Zm27.016,0c-2.35.009-4.858.861-8.923,3.872,4.562,4.86,11.257,5.593,22.566-2.6-7.113.511-10.208-1.282-13.643-1.269Zm-16.721,4.341c.809.745,1.621,1.44,2.428,2.1-6.524,3.191-15.507,7.452-17.576,7.115l1.713,7.068c-.028-4.433,8.019-6.609,16.786-13.444,8.768,6.837,16.815,9.011,16.786,13.444l1.714-7.068c-2.069.337-11.052-3.923-17.577-7.115.808-.657,1.619-1.352,2.429-2.1-.938.459-2.106,1.036-3.352,1.647-1.245-.611-2.415-1.189-3.352-1.647Z"/></g></g></g></g></svg>