<svg xmlns="http://www.w3.org/2000/svg" xmlns:xlink="http://www.w3.org/1999/xlink" viewBox="0 0 120 120"><defs><style>.cls-1{isolation:isolate;}.cls-2{fill:none;}.cls-3{fill:#16d671;}.cls-4{opacity:0.4;fill:url(#무제_그라디언트_3);}.cls-4,.cls-7{mix-blend-mode:overlay;}.cls-5{fill:url(#무제_그라디언트_102);}.cls-6{fill:url(#무제_그라디언트_102-2);}.cls-7{fill:url(#무제_그라디언트_3-2);}.cls-8{fill:url(#무제_그라디언트_130);}.cls-9{fill:#fff;}.cls-10{fill:url(#무제_그라디언트_102-3);}</style><linearGradient id="무제_그라디언트_3" x1="60" y1="60" x2="60" y2="103.84" gradientUnits="userSpaceOnUse"><stop offset="0" stop-color="#fff" stop-opacity="0.2"/><stop offset="1" stop-color="#fff"/></linearGradient><linearGradient id="무제_그라디언트_102" x1="110" y1="85" x2="10" y2="85" gradientUnits="userSpaceOnUse"><stop offset="0" stop-color="#f0e755"/><stop offset="0.223" stop-color="#fffb80"/><stop offset="0.44" stop-color="#d17600"/><stop offset="0.692" stop-color="#ffe681"/><stop offset="0.993" stop-color="#d5a244"/></linearGradient><linearGradient id="무제_그라디언트_102-2" x1="10" y1="35" x2="110" y2="35" xlink:href="#무제_그라디언트_102"/><linearGradient id="무제_그라디언트_3-2" x1="60" y1="25.009" x2="60" y2="94.991" gradientTransform="translate(60 144.853) rotate(-135)" xlink:href="#무제_그라디언트_3"/><linearGradient id="무제_그라디언트_130" x1="59.672" y1="79.396" x2="59.672" y2="43.692" gradientUnits="userSpaceOnUse"><stop offset="0" stop-color="#2a385f"/><stop offset="1" stop-color="#15202b"/></linearGradient><linearGradient id="무제_그라디언트_102-3" x1="59.862" y1="118.473" x2="59.862" y2="18.128" xlink:href="#무제_그라디언트_102"/></defs><title>c3g</title><g class="cls-1"><g id="레이어_2" data-name="레이어 2"><g id="레이어_1-2" data-name="레이어 1"><rect class="cls-2" width="120" height="120"/><rect class="cls-3" x="29" y="29" width="61.999" height="61.999" transform="translate(144.853 60) rotate(135)"/><polygon class="cls-4" points="16.16 60 60 103.84 103.84 60 16.16 60"/><polygon class="cls-5" points="103.84 60 60 103.84 16.16 60 10 60 60 110 110 60 103.84 60"/><polygon class="cls-6" points="60 10 10 60 16.16 60 60 16.16 103.84 60 110 60 60 10"/><rect class="cls-7" x="35.258" y="35.258" width="49.485" height="49.485" transform="translate(144.853 60) rotate(135)"/><path class="cls-8" d="M59.754,79.4a16.135,16.135,0,0,1-7.107-1.548A12.074,12.074,0,0,1,47.391,72.8a10.39,10.39,0,0,1-1.217-3.169,15.734,15.734,0,0,1-.3-3.042V65.049H56.849l.055,1.479a3.123,3.123,0,0,0,.792,2.243,2.966,2.966,0,0,0,2.14.706,2.5,2.5,0,0,0,1.948-.611,2.683,2.683,0,0,0,.614-1.829,2.187,2.187,0,0,0-.655-1.87,2.646,2.646,0,0,0-1.825-.651,3.161,3.161,0,0,0-.526.041c-.239.04-2.609.466-2.609.466V56.892h-9.7l.2-1.718a14.882,14.882,0,0,1,1.355-4.8,11.878,11.878,0,0,1,2.71-3.645,11.389,11.389,0,0,1,3.881-2.274,15.365,15.365,0,0,1,9.427-.046,10.928,10.928,0,0,1,3.716,2.1,9.422,9.422,0,0,1,2.447,3.374,10.834,10.834,0,0,1,.844,4.32,8.55,8.55,0,0,1-1.056,4.412A8.345,8.345,0,0,1,69.67,59.9a8.166,8.166,0,0,1,2.187,2.14,9.53,9.53,0,0,1,1.609,5.574,10.944,10.944,0,0,1-3.975,8.6,13.217,13.217,0,0,1-4.356,2.371A17.153,17.153,0,0,1,59.754,79.4Zm-1.24-22.779a2.979,2.979,0,0,0,.359.029h.389a1.849,1.849,0,0,0,1.4-.476,1.534,1.534,0,0,0,.469-1.226,1.454,1.454,0,0,0-.42-1.155,1.568,1.568,0,0,0-1.2-.423,1.524,1.524,0,0,0-1.245.485,2.042,2.042,0,0,0-.5,1.5v1.167Z"/><path class="cls-9" d="M60,45.23a12.865,12.865,0,0,1,4.161.635,9.369,9.369,0,0,1,3.2,1.8,7.868,7.868,0,0,1,2.05,2.829,9.261,9.261,0,0,1,.717,3.71,7.02,7.02,0,0,1-.84,3.627,7.535,7.535,0,0,1-2.4,2.439,6.864,6.864,0,0,1,3.71,2.644,8,8,0,0,1,1.332,4.694,9.415,9.415,0,0,1-3.423,7.42,11.645,11.645,0,0,1-3.853,2.09,15.542,15.542,0,0,1-4.9.738,14.549,14.549,0,0,1-6.435-1.394,10.519,10.519,0,0,1-4.591-4.427,8.846,8.846,0,0,1-1.046-2.706,14.131,14.131,0,0,1-.266-2.746h7.952a4.587,4.587,0,0,0,1.271,3.3,4.452,4.452,0,0,0,3.2,1.127,3.89,3.89,0,0,0,3.116-1.147,4.2,4.2,0,0,0,.983-2.83A3.789,3.789,0,0,0,62.747,64a4.2,4.2,0,0,0-2.829-1.025,4.738,4.738,0,0,0-.779.062c-.245.041-.519.089-.819.143V58.142a4.428,4.428,0,0,0,.553.041h.389a3.414,3.414,0,0,0,2.46-.9,3.09,3.09,0,0,0,.943-2.337,3.012,3.012,0,0,0-.882-2.255,3.122,3.122,0,0,0-2.274-.86,3.075,3.075,0,0,0-2.378.983,3.615,3.615,0,0,0-.9,2.542H48.81a13.264,13.264,0,0,1,1.209-4.3,10.29,10.29,0,0,1,2.357-3.176,9.8,9.8,0,0,1,3.361-1.968A12.8,12.8,0,0,1,60,45.23m0-3.075a15.887,15.887,0,0,0-5.282.851,12.914,12.914,0,0,0-4.4,2.583,13.4,13.4,0,0,0-3.062,4.11,16.387,16.387,0,0,0-1.5,5.294l-.407,3.436h9.895v5.083h-10.9v3.074a17.337,17.337,0,0,0,.325,3.342,11.973,11.973,0,0,0,1.4,3.644,13.572,13.572,0,0,0,5.913,5.659,17.663,17.663,0,0,0,7.778,1.7,18.7,18.7,0,0,0,5.862-.892,14.751,14.751,0,0,0,4.861-2.651A12.491,12.491,0,0,0,75,67.611a11.033,11.033,0,0,0-1.887-6.454,9.813,9.813,0,0,0-1.323-1.534c.046-.072.09-.145.134-.218a10.061,10.061,0,0,0,1.272-5.2,12.365,12.365,0,0,0-.97-4.929,10.934,10.934,0,0,0-2.845-3.921,12.474,12.474,0,0,0-4.233-2.4,15.963,15.963,0,0,0-5.152-.8Zm-.619,12.756a.863.863,0,0,1,.128-.008q.046,0,.081,0v.038a.769.769,0,0,1-.008.12.7.7,0,0,1-.264.043.526.526,0,0,1,.062-.2Zm-.947,11.376.43-.078c.286-.051.547-.1.781-.136a1.61,1.61,0,0,1,.273-.02,1.122,1.122,0,0,1,.822.28,1.325,1.325,0,0,1,.121.7,1.16,1.16,0,0,1-.215.8,2.239,2.239,0,0,1-.81.108,1.58,1.58,0,0,1-1.08-.283,1.923,1.923,0,0,1-.315-1.186l-.007-.183Z"/><g id="layer1"><path id="path8735" class="cls-10" d="M40.716,18.128c-.168.131-.333.263-.493.4C40.4,18.393,40.569,18.264,40.716,18.128Zm38.3,0c.147.136.318.265.492.4C79.346,18.391,79.181,18.259,79.013,18.128ZM40.2,18.549c-3.659,2.755-12.8,4.819-10.836,9.108C34.279,28.271,35.271,22.718,40.2,18.549Zm39.334,0c4.924,4.169,5.92,9.723,10.841,9.108,1.958-4.289-7.182-6.353-10.841-9.108ZM28.341,23.056c-4.6,3.87-4.992,6.744-3.437,9.156,4.138-3.409,1.829-4.241,3.437-9.156Zm63.042,0c1.607,4.914-.7,5.747,3.442,9.155C96.38,29.8,95.984,26.926,91.383,23.056Zm-67.838,5.26c-4.377,5.047-4.308,8.27-2.182,10.646C25.312,34.5,22.635,33.988,23.545,28.316Zm72.633,0c.909,5.672-1.767,6.186,2.182,10.646C100.485,36.586,100.554,33.363,96.178,28.316Zm-62.531.5c-2.249,1.209-3.274.246-4.776.762a6.209,6.209,0,0,0-2.5,1.96c3.346,1.623,5.132-.46,7.276-2.723Zm52.434,0c2.145,2.262,3.931,4.345,7.276,2.722a6.221,6.221,0,0,0-2.5-1.96c-1.5-.516-2.522.447-4.772-.762ZM30.368,33.707c-2.054,1.563-3.3.984-4.687,1.487-.829.3-1.7.992-2.826,2.769,3.953,1.2,5.552-1.4,7.513-4.256Zm58.99,0c1.96,2.856,3.559,5.456,7.513,4.256-1.123-1.777-2-2.467-2.827-2.769-1.381-.5-2.633.076-4.686-1.487ZM19.1,35.023c-3.815,6.368-3.12,9.882-.336,12.072C22.222,41.453,19.2,41.406,19.1,35.023Zm81.537,0c-.1,6.383-3.125,6.43.336,12.072C103.755,44.905,104.45,41.391,100.634,35.023ZM27.6,39.6c-3.113,3.369-5.039.349-7.4,6.112,4.558.55,5.805-2.609,7.4-6.112Zm64.528,0c1.594,3.5,2.842,6.662,7.4,6.112-2.361-5.763-4.286-2.743-7.4-6.112ZM15.521,43.222c-2.812,7.753-1.305,11.432,2.2,13.231,2.579-6.887-.735-6.291-2.2-13.231Zm88.685,0c-1.461,6.94-4.775,6.343-2.2,13.231,3.5-1.8,5.008-5.478,2.2-13.231Zm-78.431,3.19c-2.681,4.335-5.426,1.447-6.779,8.233C24.083,54.279,24.778,50.571,25.775,46.412Zm68.177,0c1,4.159,1.692,7.867,6.779,8.233C99.378,47.859,96.633,50.747,93.952,46.412ZM13.268,52.743C12,61.819,14.492,65.472,18.712,66.618,19.924,58.537,16.46,59.949,13.268,52.743Zm93.188,0c-3.192,7.2-6.651,5.794-5.439,13.875C105.237,65.472,107.72,61.819,106.456,52.743Zm-81.305,1.1c-1.913,5.33-5.565,2.822-5.468,10.509C25.127,62.782,25.029,58.6,25.151,53.846Zm69.427,0c.122,4.75.023,8.936,5.468,10.509C100.142,56.668,96.491,59.176,94.578,53.846Zm-68.353,8.5c-.63,6.261-5.239,4.544-3.068,12.805C28.6,71.994,27.37,67.5,26.225,62.348Zm67.277,0c-1.145,5.154-2.379,9.646,3.068,12.805C98.741,66.892,94.132,68.609,93.5,62.348ZM13.121,64.355c1.077,10.125,4.738,13.4,9.6,13.5C21.851,68.814,18.5,71.266,13.121,64.355Zm93.485,0c-5.378,6.911-8.734,4.459-9.6,13.5C101.864,77.751,105.529,74.48,106.606,64.355ZM29.5,70.547c1.125,6.9-4.318,6.376.388,14.618C34.825,80.208,32.211,75.749,29.5,70.547Zm60.726,0c-2.712,5.2-5.33,9.661-.393,14.618C94.538,76.923,89.1,77.447,90.226,70.547ZM16.008,76.46c4.068,10.557,8.94,13.014,14.183,11.725C26.662,78.734,23.768,82.33,16.008,76.46Zm87.706,0c-7.759,5.87-10.649,2.274-14.178,11.725C94.779,89.474,99.647,87.017,103.714,76.46ZM35.053,77.989c3.315,7.025-2.655,8.136,4.9,15.5C43.7,86.681,39.542,82.714,35.053,77.989Zm49.616,0c-4.489,4.726-8.65,8.692-4.895,15.5C87.324,86.125,81.354,85.014,84.669,77.989ZM42.7,83.925c5.8,6.388-.18,9.509,10.234,14.879C54.712,90.352,49,87.488,42.7,83.925Zm34.329,0C70.723,87.488,65.015,90.352,66.794,98.8c10.414-5.37,4.43-8.491,10.234-14.879ZM22.462,88.441C30.039,98.472,35.993,99.6,41.2,96.621,34.535,87.608,32.546,92.334,22.462,88.441Zm74.8,0c-10.085,3.893-12.068-.833-18.732,8.18C83.735,99.6,89.684,98.471,97.262,88.441ZM46.354,97.852c-3.435-.013-6.525,1.78-13.638,1.269,11.309,8.2,18,7.463,22.566,2.6-4.066-3.011-6.577-3.863-8.928-3.872Zm27.016,0c-2.35.009-4.858.861-8.923,3.872,4.562,4.86,11.257,5.593,22.566-2.6-7.113.511-10.208-1.282-13.643-1.269Zm-16.721,4.341c.809.745,1.621,1.44,2.428,2.1-6.524,3.191-15.507,7.452-17.576,7.115l1.713,7.068c-.028-4.433,8.019-6.609,16.786-13.444,8.768,6.837,16.815,9.011,16.786,13.444l1.714-7.068c-2.069.337-11.052-3.923-17.577-7.115.808-.657,1.619-1.352,2.429-2.1-.938.459-2.106,1.036-3.352,1.647-1.245-.611-2.415-1.189-3.352-1.647Z"/></g></g></g></g></svg>