<svg xmlns="http://www.w3.org/2000/svg" xmlns:xlink="http://www.w3.org/1999/xlink" viewBox="0 0 120 120"><defs><style>.cls-1{isolation:isolate;}.cls-2{fill:none;}.cls-3{fill:#23c91b;}.cls-4{opacity:0.4;fill:url(#무제_그라디언트_3);}.cls-4,.cls-5{mix-blend-mode:overlay;}.cls-5{fill:url(#무제_그라디언트_3-2);}.cls-6{fill:url(#무제_그라디언트_130);}.cls-7{fill:#fff;}</style><linearGradient id="무제_그라디언트_3" x1="60" y1="60" x2="60" y2="110" gradientUnits="userSpaceOnUse"><stop offset="0" stop-color="#fff" stop-opacity="0.2"/><stop offset="1" stop-color="#fff"/></linearGradient><linearGradient id="무제_그라디언트_3-2" x1="60" y1="25.009" x2="60" y2="94.991" gradientTransform="translate(60 144.853) rotate(-135)" xlink:href="#무제_그라디언트_3"/><linearGradient id="무제_그라디언트_130" x1="59.693" y1="78.535" x2="59.693" y2="44.553" gradientUnits="userSpaceOnUse"><stop offset="0" stop-color="#2a385f"/><stop offset="1" stop-color="#15202b"/></linearGradient></defs><title>c4</title><g class="cls-1"><g id="레이어_2" data-name="레이어 2"><g id="레이어_1-2" data-name="레이어 1"><rect class="cls-2" width="120" height="120"/><rect class="cls-3" x="24.645" y="24.645" width="70.711" height="70.711" transform="translate(144.853 60) rotate(135)"/><polygon class="cls-4" points="10 60 60 110 110 60 10 60"/><rect class="cls-5" x="35.258" y="35.258" width="49.485" height="49.485" transform="translate(144.853 60) rotate(135)"/><path class="cls-6" d="M60.021,78.535V72.181H45.1V65.048l12.479-20.5H70.555V62.958h3.731v9.223H70.555v6.354Zm0-15.577V58.014l-2.88,4.944Z"/><path class="cls-7" d="M69.018,46.09V64.5h3.731v6.149H69.018V77h-7.46V70.644H46.637V65.479L58.443,46.09H69.018M54.467,64.5h7.091V52.321L54.467,64.5m17.626-21.48H56.716l-.9,1.476L44.011,63.88l-.449.736v9.1H58.484v6.354H72.093V73.718h3.73v-12.3h-3.73V43.015Z"/></g></g></g></svg>