<svg xmlns="http://www.w3.org/2000/svg" xmlns:xlink="http://www.w3.org/1999/xlink" viewBox="0 0 120 120"><defs><style>.cls-1{isolation:isolate;}.cls-2{fill:#99d111;}.cls-3{opacity:0.4;fill:url(#무제_그라디언트_3);}.cls-3,.cls-4{mix-blend-mode:overlay;}.cls-4{fill:url(#무제_그라디언트_3-2);}.cls-5{fill:url(#무제_그라디언트_130);}.cls-6{fill:#fff;}.cls-7{fill:none;}</style><linearGradient id="무제_그라디언트_3" x1="60" y1="60" x2="60" y2="110" gradientUnits="userSpaceOnUse"><stop offset="0" stop-color="#fff" stop-opacity="0.2"/><stop offset="1" stop-color="#fff"/></linearGradient><linearGradient id="무제_그라디언트_3-2" x1="60" y1="25.009" x2="60" y2="94.991" gradientTransform="translate(60 144.853) rotate(-135)" xlink:href="#무제_그라디언트_3"/><linearGradient id="무제_그라디언트_130" x1="59.685" y1="79.396" x2="59.685" y2="44.553" gradientUnits="userSpaceOnUse"><stop offset="0" stop-color="#2a385f"/><stop offset="1" stop-color="#15202b"/></linearGradient></defs><title>c5</title><g class="cls-1"><g id="레이어_2" data-name="레이어 2"><g id="레이어_1-2" data-name="레이어 1"><rect class="cls-2" x="24.645" y="24.645" width="70.711" height="70.711" transform="translate(144.853 60) rotate(135)"/><polygon class="cls-3" points="10 60 60 110 110 60 10 60"/><rect class="cls-4" x="35.258" y="35.258" width="49.485" height="49.485" transform="translate(144.853 60) rotate(135)"/><path class="cls-5" d="M58.278,79.4a22.037,22.037,0,0,1-5.706-.729,18.842,18.842,0,0,1-5.155-2.254l-.857-.539,1.775-11.269.049.042,3.127-20.094H70.556v9.879H59.635l-.023.144c.262-.014.529-.021.8-.021a12.978,12.978,0,0,1,4.926.933,11.616,11.616,0,0,1,6.54,6.54A13.1,13.1,0,0,1,72.811,67a12.252,12.252,0,0,1-1.063,5.15A11.278,11.278,0,0,1,68.737,76.1a13.31,13.31,0,0,1-4.629,2.463A19.5,19.5,0,0,1,58.278,79.4ZM50.427,66.4a15.039,15.039,0,0,0,3.789,2.439,8.735,8.735,0,0,0,3.448.8,4,4,0,0,0,2.848-.922,2.785,2.785,0,0,0,.944-2.174,2.874,2.874,0,0,0-1.3-2.469,6.871,6.871,0,0,0-4.133-1.117,12.576,12.576,0,0,0-2.556.275,12.254,12.254,0,0,0-2.586.857l-2.055.938Z"/><path class="cls-6" d="M69.019,46.09V52.9h-10.7l-.532,3.4c.491-.054.943-.1,1.352-.143s.834-.062,1.271-.062a11.377,11.377,0,0,1,4.345.82,10.067,10.067,0,0,1,5.7,5.7A11.507,11.507,0,0,1,71.273,67a10.7,10.7,0,0,1-.922,4.509,9.727,9.727,0,0,1-2.6,3.423,11.744,11.744,0,0,1-4.1,2.172,17.887,17.887,0,0,1-5.371.758,20.4,20.4,0,0,1-5.308-.676,17.22,17.22,0,0,1-4.734-2.07l1.189-7.543a16.472,16.472,0,0,0,4.181,2.685,10.217,10.217,0,0,0,4.058.923,5.5,5.5,0,0,0,3.894-1.332,4.32,4.32,0,0,0,1.435-3.3,4.393,4.393,0,0,0-1.926-3.71,8.321,8.321,0,0,0-5.042-1.414,14.06,14.06,0,0,0-2.871.307,13.755,13.755,0,0,0-2.91.964l2.583-16.6H69.019m3.074-3.075h-21.9l-.405,2.6-2.5,16.06-.044-.037-.859,5.451L45.2,74.634l-.316,2L46.6,77.714a20.377,20.377,0,0,0,5.576,2.438,23.573,23.573,0,0,0,6.1.781,21.057,21.057,0,0,0,6.29-.9,14.834,14.834,0,0,0,5.159-2.754,12.815,12.815,0,0,0,3.418-4.493A13.779,13.779,0,0,0,74.348,67,14.61,14.61,0,0,0,73.3,61.448a13.426,13.426,0,0,0-2.925-4.454,13.1,13.1,0,0,0-1.157-1.025h2.876V43.015ZM51.654,65.429a10.632,10.632,0,0,1,2.127-.691,11.07,11.07,0,0,1,2.244-.243,5.408,5.408,0,0,1,3.222.819,1.343,1.343,0,0,1,.672,1.231,1.264,1.264,0,0,1-.452,1.046,2.384,2.384,0,0,1-1.8.511,7.232,7.232,0,0,1-2.836-.669,13.274,13.274,0,0,1-3.174-2Z"/><rect class="cls-7" width="120" height="120"/></g></g></g></svg>