<svg xmlns="http://www.w3.org/2000/svg" xmlns:xlink="http://www.w3.org/1999/xlink" viewBox="0 0 120 120"><defs><style>.cls-1{isolation:isolate;}.cls-2{fill:url(#무제_그라디언트_51);}.cls-3{fill:url(#무제_그라디언트_51-2);}.cls-4{fill:#99d111;}.cls-5{opacity:0.4;fill:url(#무제_그라디언트_3);}.cls-5,.cls-6{mix-blend-mode:overlay;}.cls-6{fill:url(#무제_그라디언트_3-2);}.cls-7{fill:url(#무제_그라디언트_130);}.cls-8{fill:#fff;}.cls-9{fill:url(#무제_그라디언트_51-3);}.cls-10{fill:none;}</style><linearGradient id="무제_그라디언트_51" x1="110" y1="85" x2="10" y2="85" gradientUnits="userSpaceOnUse"><stop offset="0" stop-color="#f5f5f5"/><stop offset="0.234" stop-color="#f0f3f2"/><stop offset="0.441" stop-color="#c2c3c5"/><stop offset="0.786" stop-color="#f9f9f9"/><stop offset="0.998" stop-color="#dadbdc"/></linearGradient><linearGradient id="무제_그라디언트_51-2" x1="10" y1="35" x2="110" y2="35" xlink:href="#무제_그라디언트_51"/><linearGradient id="무제_그라디언트_3" x1="60" y1="60" x2="60" y2="103.84" gradientUnits="userSpaceOnUse"><stop offset="0" stop-color="#fff" stop-opacity="0.2"/><stop offset="1" stop-color="#fff"/></linearGradient><linearGradient id="무제_그라디언트_3-2" x1="60" y1="25.009" x2="60" y2="94.991" gradientTransform="translate(60 144.853) rotate(-135)" xlink:href="#무제_그라디언트_3"/><linearGradient id="무제_그라디언트_130" x1="59.685" y1="79.395" x2="59.685" y2="44.553" gradientUnits="userSpaceOnUse"><stop offset="0" stop-color="#2a385f"/><stop offset="1" stop-color="#15202b"/></linearGradient><linearGradient id="무제_그라디언트_51-3" x1="59.864" y1="118.473" x2="59.864" y2="62.348" xlink:href="#무제_그라디언트_51"/></defs><title>c5s</title><g class="cls-1"><g id="레이어_2" data-name="레이어 2"><g id="레이어_1-2" data-name="레이어 1"><polygon class="cls-2" points="103.84 60 60 103.84 16.16 60 10 60 60 110 110 60 103.84 60"/><polygon class="cls-3" points="60 10 10 60 16.16 60 60 16.16 103.84 60 110 60 60 10"/><rect class="cls-4" x="29" y="29" width="61.999" height="61.999" transform="translate(144.853 60) rotate(135)"/><polygon class="cls-5" points="16.16 60 60 103.84 103.84 60 16.16 60"/><rect class="cls-6" x="35.258" y="35.258" width="49.485" height="49.485" transform="translate(144.853 60) rotate(135)"/><path class="cls-7" d="M58.278,79.4a22.059,22.059,0,0,1-5.706-.728,18.833,18.833,0,0,1-5.155-2.254l-.857-.54L48.336,64.6l.048.042,3.127-20.093H70.556v9.879H59.635l-.023.144q.395-.021.8-.021a12.952,12.952,0,0,1,4.926.934,11.6,11.6,0,0,1,6.539,6.539A13.083,13.083,0,0,1,72.811,67a12.259,12.259,0,0,1-1.063,5.15A11.278,11.278,0,0,1,68.737,76.1a13.3,13.3,0,0,1-4.629,2.463A19.484,19.484,0,0,1,58.278,79.4ZM50.428,66.4a14.992,14.992,0,0,0,3.788,2.439,8.735,8.735,0,0,0,3.448.8,4.006,4.006,0,0,0,2.849-.922,2.788,2.788,0,0,0,.943-2.174,2.875,2.875,0,0,0-1.3-2.469,6.866,6.866,0,0,0-4.132-1.117,12.578,12.578,0,0,0-2.557.275,12.272,12.272,0,0,0-2.586.857l-2.054.937Z"/><path class="cls-8" d="M69.019,46.09V52.9h-10.7l-.532,3.4c.491-.054.943-.1,1.352-.143s.834-.062,1.271-.062a11.377,11.377,0,0,1,4.345.82,10.077,10.077,0,0,1,5.7,5.7A11.516,11.516,0,0,1,71.273,67a10.7,10.7,0,0,1-.922,4.509,9.727,9.727,0,0,1-2.6,3.423,11.727,11.727,0,0,1-4.1,2.172,17.887,17.887,0,0,1-5.371.758,20.442,20.442,0,0,1-5.308-.675,17.223,17.223,0,0,1-4.734-2.071l1.189-7.543a16.444,16.444,0,0,0,4.181,2.685,10.2,10.2,0,0,0,4.058.923,5.5,5.5,0,0,0,3.894-1.332,4.322,4.322,0,0,0,1.435-3.3,4.393,4.393,0,0,0-1.926-3.709,8.321,8.321,0,0,0-5.042-1.415,14,14,0,0,0-2.871.309,13.748,13.748,0,0,0-2.91.962l2.583-16.6H69.019m3.074-3.074h-21.9l-.405,2.6-2.5,16.059-.044-.038-.859,5.452L45.2,74.633l-.316,2L46.6,77.713a20.357,20.357,0,0,0,5.576,2.439,23.6,23.6,0,0,0,6.1.78,21.043,21.043,0,0,0,6.29-.9,14.848,14.848,0,0,0,5.159-2.753,12.819,12.819,0,0,0,3.418-4.494A13.785,13.785,0,0,0,74.348,67,14.633,14.633,0,0,0,73.3,61.448a13.444,13.444,0,0,0-2.926-4.454,13.1,13.1,0,0,0-1.157-1.025h2.876V43.016ZM51.654,65.428a10.645,10.645,0,0,1,2.125-.689,11.059,11.059,0,0,1,2.246-.244,5.415,5.415,0,0,1,3.222.818,1.345,1.345,0,0,1,.672,1.231,1.263,1.263,0,0,1-.452,1.047,2.38,2.38,0,0,1-1.8.512,7.235,7.235,0,0,1-2.836-.67,13.248,13.248,0,0,1-3.174-2.005Z"/><g id="layer1"><path id="path8735" class="cls-9" d="M93.5,62.348c-1.145,5.154-2.379,9.646,3.068,12.805C98.741,66.892,94.132,68.609,93.5,62.348Zm13.1,2.007c-5.378,6.911-8.734,4.459-9.6,13.5C101.864,77.751,105.529,74.48,106.606,64.355Zm-2.892,12.1c-7.759,5.87-10.649,2.274-14.178,11.725C94.779,89.474,99.647,87.017,103.714,76.46ZM26.225,62.348c-.63,6.261-5.239,4.544-3.068,12.805C28.6,71.994,27.37,67.5,26.225,62.348Zm-13.1,2.007c1.077,10.125,4.738,13.4,9.6,13.5C21.851,68.814,18.5,71.266,13.121,64.355ZM29.5,70.547c1.125,6.9-4.318,6.376.388,14.618C34.825,80.208,32.211,75.749,29.5,70.547Zm60.726,0c-2.712,5.2-5.33,9.661-.393,14.618C94.538,76.923,89.1,77.447,90.226,70.547ZM16.008,76.46c4.068,10.557,8.94,13.014,14.183,11.725C26.662,78.734,23.768,82.33,16.008,76.46Zm19.045,1.529c3.315,7.025-2.655,8.136,4.9,15.5C43.7,86.681,39.542,82.714,35.053,77.989Zm49.616,0c-4.489,4.726-8.65,8.692-4.895,15.5C87.324,86.125,81.354,85.014,84.669,77.989ZM42.7,83.925c5.8,6.388-.18,9.509,10.234,14.879C54.712,90.352,49,87.488,42.7,83.925Zm34.329,0C70.723,87.488,65.015,90.352,66.794,98.8c10.414-5.37,4.43-8.491,10.234-14.879ZM22.462,88.441C30.039,98.472,35.993,99.6,41.2,96.621,34.535,87.608,32.546,92.334,22.462,88.441Zm74.8,0c-10.085,3.893-12.068-.833-18.732,8.18C83.735,99.6,89.684,98.471,97.262,88.441ZM46.354,97.852c-3.435-.013-6.525,1.78-13.638,1.269,11.309,8.2,18,7.463,22.566,2.6-4.066-3.011-6.577-3.863-8.928-3.872Zm27.016,0c-2.35.009-4.858.861-8.923,3.872,4.562,4.86,11.257,5.593,22.566-2.6-7.113.511-10.208-1.282-13.643-1.269Zm-16.721,4.341c.809.745,1.621,1.44,2.428,2.1-6.524,3.191-15.507,7.452-17.576,7.115l1.713,7.068c-.028-4.433,8.019-6.609,16.786-13.444,8.768,6.837,16.815,9.011,16.786,13.444l1.714-7.068c-2.069.337-11.052-3.923-17.577-7.115.808-.657,1.619-1.352,2.429-2.1-.938.459-2.106,1.036-3.352,1.647-1.245-.611-2.415-1.189-3.352-1.647Z"/></g><rect class="cls-10" width="120" height="120"/></g></g></g></svg>