<svg xmlns="http://www.w3.org/2000/svg" xmlns:xlink="http://www.w3.org/1999/xlink" viewBox="0 0 120 120"><defs><style>.cls-1{isolation:isolate;}.cls-2{fill:none;}.cls-3{fill:#ef9e0f;}.cls-4{opacity:0.4;fill:url(#무제_그라디언트_3);}.cls-4,.cls-5{mix-blend-mode:overlay;}.cls-5{fill:url(#무제_그라디언트_3-2);}.cls-6{fill:url(#무제_그라디언트_130);}.cls-7{fill:#fff;}</style><linearGradient id="무제_그라디언트_3" x1="60" y1="60" x2="60" y2="110" gradientUnits="userSpaceOnUse"><stop offset="0" stop-color="#fff" stop-opacity="0.2"/><stop offset="1" stop-color="#fff"/></linearGradient><linearGradient id="무제_그라디언트_3-2" x1="60" y1="25.009" x2="60" y2="94.991" gradientTransform="translate(60 144.853) rotate(-135)" xlink:href="#무제_그라디언트_3"/><linearGradient id="무제_그라디언트_130" x1="61.42" y1="78.535" x2="61.42" y2="44.553" gradientUnits="userSpaceOnUse"><stop offset="0" stop-color="#2a385f"/><stop offset="1" stop-color="#15202b"/></linearGradient></defs><title>c7</title><g class="cls-1"><g id="레이어_2" data-name="레이어 2"><g id="레이어_1-2" data-name="레이어 1"><rect class="cls-2" width="120" height="120"/><rect class="cls-3" x="24.645" y="24.645" width="70.711" height="70.711" transform="translate(144.853 60) rotate(135)"/><polygon class="cls-4" points="10 60 60 110 110 60 10 60"/><rect class="cls-5" x="35.258" y="35.258" width="49.485" height="49.485" transform="translate(144.853 60) rotate(135)"/><polygon class="cls-6" points="45.473 78.535 59.574 54.432 47.806 54.432 47.806 44.553 77.368 44.553 57.899 78.535 45.473 78.535"/><path class="cls-7" d="M74.716,46.09,57.009,77H48.154l14.1-24.1H49.343v-6.8H74.716m5.305-3.075H46.268V55.969H56.894L45.5,75.445l-2.707,4.627h16l.886-1.546L77.384,47.618l2.637-4.6Z"/></g></g></g></svg>