<svg xmlns="http://www.w3.org/2000/svg" xmlns:xlink="http://www.w3.org/1999/xlink" viewBox="0 0 120 120"><defs><style>.cls-1{isolation:isolate;}.cls-2{fill:none;}.cls-3{fill:#ef9e0f;}.cls-4{opacity:0.4;fill:url(#무제_그라디언트_3);}.cls-4,.cls-7{mix-blend-mode:overlay;}.cls-5{fill:url(#무제_그라디언트_51);}.cls-6{fill:url(#무제_그라디언트_51-2);}.cls-7{fill:url(#무제_그라디언트_3-2);}.cls-8{fill:url(#무제_그라디언트_130);}.cls-9{fill:#fff;}.cls-10{fill:url(#무제_그라디언트_51-3);}</style><linearGradient id="무제_그라디언트_3" x1="60" y1="60" x2="60" y2="103.84" gradientUnits="userSpaceOnUse"><stop offset="0" stop-color="#fff" stop-opacity="0.2"/><stop offset="1" stop-color="#fff"/></linearGradient><linearGradient id="무제_그라디언트_51" x1="110" y1="85" x2="10" y2="85" gradientUnits="userSpaceOnUse"><stop offset="0" stop-color="#f5f5f5"/><stop offset="0.234" stop-color="#f0f3f2"/><stop offset="0.441" stop-color="#c2c3c5"/><stop offset="0.786" stop-color="#f9f9f9"/><stop offset="0.998" stop-color="#dadbdc"/></linearGradient><linearGradient id="무제_그라디언트_51-2" x1="10" y1="35" x2="110" y2="35" xlink:href="#무제_그라디언트_51"/><linearGradient id="무제_그라디언트_3-2" x1="60" y1="25.009" x2="60" y2="94.991" gradientTransform="translate(60 144.853) rotate(-135)" xlink:href="#무제_그라디언트_3"/><linearGradient id="무제_그라디언트_130" x1="61.42" y1="78.535" x2="61.42" y2="44.553" gradientUnits="userSpaceOnUse"><stop offset="0" stop-color="#2a385f"/><stop offset="1" stop-color="#15202b"/></linearGradient><linearGradient id="무제_그라디언트_51-3" x1="59.864" y1="118.473" x2="59.864" y2="62.348" xlink:href="#무제_그라디언트_51"/></defs><title>c7s</title><g class="cls-1"><g id="레이어_2" data-name="레이어 2"><g id="레이어_1-2" data-name="레이어 1"><rect class="cls-2" width="120" height="120"/><rect class="cls-3" x="29" y="29" width="61.999" height="61.999" transform="translate(144.853 60) rotate(135)"/><polygon class="cls-4" points="16.16 60 60 103.84 103.84 60 16.16 60"/><polygon class="cls-5" points="103.84 60 60 103.84 16.16 60 10 60 60 110 110 60 103.84 60"/><polygon class="cls-6" points="60 10 10 60 16.16 60 60 16.16 103.84 60 110 60 60 10"/><rect class="cls-7" x="35.258" y="35.258" width="49.485" height="49.485" transform="translate(144.853 60) rotate(135)"/><polygon class="cls-8" points="45.473 78.535 59.574 54.432 47.806 54.432 47.806 44.553 77.368 44.553 57.899 78.535 45.473 78.535"/><path class="cls-9" d="M74.716,46.09,57.009,77H48.154l14.1-24.1H49.343v-6.8H74.716m5.305-3.074H46.268V55.969H56.894L45.5,75.445l-2.707,4.627h16l.886-1.546L77.384,47.618l2.637-4.6Z"/><g id="layer1"><path id="path8735" class="cls-10" d="M26.225,62.348c-.63,6.261-5.239,4.544-3.068,12.805C28.6,71.994,27.37,67.5,26.225,62.348Zm67.277,0c-1.145,5.154-2.379,9.646,3.068,12.805C98.741,66.892,94.132,68.609,93.5,62.348ZM13.121,64.355c1.077,10.125,4.738,13.4,9.6,13.5C21.851,68.814,18.5,71.266,13.121,64.355Zm93.485,0c-5.378,6.911-8.734,4.459-9.6,13.5C101.864,77.751,105.529,74.48,106.606,64.355ZM29.5,70.547c1.125,6.9-4.318,6.376.388,14.618C34.825,80.208,32.211,75.749,29.5,70.547Zm60.726,0c-2.712,5.2-5.33,9.661-.393,14.618C94.538,76.923,89.1,77.447,90.226,70.547ZM16.008,76.46c4.068,10.557,8.94,13.014,14.183,11.725C26.662,78.734,23.768,82.33,16.008,76.46Zm87.706,0c-7.759,5.87-10.649,2.274-14.178,11.725C94.779,89.474,99.647,87.017,103.714,76.46ZM35.053,77.989c3.315,7.025-2.655,8.136,4.9,15.5C43.7,86.681,39.542,82.714,35.053,77.989Zm49.616,0c-4.489,4.726-8.65,8.692-4.895,15.5C87.324,86.125,81.354,85.014,84.669,77.989ZM42.7,83.925c5.8,6.388-.18,9.509,10.234,14.879C54.712,90.352,49,87.488,42.7,83.925Zm34.329,0C70.723,87.488,65.015,90.352,66.794,98.8c10.414-5.37,4.43-8.491,10.234-14.879ZM22.462,88.441C30.039,98.472,35.993,99.6,41.2,96.621,34.535,87.608,32.546,92.334,22.462,88.441Zm74.8,0c-10.085,3.893-12.068-.833-18.732,8.18C83.735,99.6,89.684,98.471,97.262,88.441ZM46.354,97.852c-3.435-.013-6.525,1.78-13.638,1.269,11.309,8.2,18,7.463,22.566,2.6-4.066-3.011-6.577-3.863-8.928-3.872Zm27.016,0c-2.35.009-4.858.861-8.923,3.872,4.562,4.86,11.257,5.593,22.566-2.6-7.113.511-10.208-1.282-13.643-1.269Zm-16.721,4.341c.809.745,1.621,1.44,2.428,2.1-6.524,3.191-15.507,7.452-17.576,7.115l1.713,7.068c-.028-4.433,8.019-6.609,16.786-13.444,8.768,6.837,16.815,9.011,16.786,13.444l1.714-7.068c-2.069.337-11.052-3.923-17.577-7.115.808-.657,1.619-1.352,2.429-2.1-.938.459-2.106,1.036-3.352,1.647-1.245-.611-2.415-1.189-3.352-1.647Z"/></g></g></g></g></svg>