<svg xmlns="http://www.w3.org/2000/svg" xmlns:xlink="http://www.w3.org/1999/xlink" viewBox="0 0 120 120"><defs><style>.cls-1{isolation:isolate;}.cls-2{fill:none;}.cls-3{fill:#ff6700;}.cls-4{opacity:0.4;fill:url(#무제_그라디언트_3);}.cls-4,.cls-7{mix-blend-mode:overlay;}.cls-5{fill:url(#무제_그라디언트_51);}.cls-6{fill:url(#무제_그라디언트_51-2);}.cls-7{fill:url(#무제_그라디언트_3-2);}.cls-8{fill:url(#무제_그라디언트_130);}.cls-9{fill:#fff;}.cls-10{fill:url(#무제_그라디언트_51-3);}</style><linearGradient id="무제_그라디언트_3" x1="60" y1="60" x2="60" y2="103.84" gradientUnits="userSpaceOnUse"><stop offset="0" stop-color="#fff" stop-opacity="0.2"/><stop offset="1" stop-color="#fff"/></linearGradient><linearGradient id="무제_그라디언트_51" x1="110" y1="85" x2="10" y2="85" gradientUnits="userSpaceOnUse"><stop offset="0" stop-color="#f5f5f5"/><stop offset="0.234" stop-color="#f0f3f2"/><stop offset="0.441" stop-color="#c2c3c5"/><stop offset="0.786" stop-color="#f9f9f9"/><stop offset="0.998" stop-color="#dadbdc"/></linearGradient><linearGradient id="무제_그라디언트_51-2" x1="10" y1="35" x2="110" y2="35" xlink:href="#무제_그라디언트_51"/><linearGradient id="무제_그라디언트_3-2" x1="60" y1="25.009" x2="60" y2="94.991" gradientTransform="translate(60 144.853) rotate(-135)" xlink:href="#무제_그라디언트_3"/><linearGradient id="무제_그라디언트_130" x1="60" y1="79.354" x2="60" y2="43.692" gradientUnits="userSpaceOnUse"><stop offset="0" stop-color="#2a385f"/><stop offset="1" stop-color="#15202b"/></linearGradient><linearGradient id="무제_그라디언트_51-3" x1="59.864" y1="118.473" x2="59.864" y2="62.348" xlink:href="#무제_그라디언트_51"/></defs><title>c8s</title><g class="cls-1"><g id="레이어_2" data-name="레이어 2"><g id="레이어_1-2" data-name="레이어 1"><rect class="cls-2" width="120" height="120"/><rect class="cls-3" x="29" y="29" width="61.999" height="61.999" transform="translate(144.853 60) rotate(135)"/><polygon class="cls-4" points="16.16 60 60 103.84 103.84 60 16.16 60"/><polygon class="cls-5" points="103.84 60 60 103.84 16.16 60 10 60 60 110 110 60 103.84 60"/><polygon class="cls-6" points="60 10 10 60 16.16 60 60 16.16 103.84 60 110 60 60 10"/><rect class="cls-7" x="35.258" y="35.258" width="49.485" height="49.485" transform="translate(144.853 60) rotate(135)"/><path class="cls-8" d="M60,79.354a17.07,17.07,0,0,1-5.112-.746,13.6,13.6,0,0,1-4.228-2.154,10.622,10.622,0,0,1-2.919-3.4,9.541,9.541,0,0,1,3.334-12.466,8.172,8.172,0,0,1-3.147-6.707,9.474,9.474,0,0,1,.937-4.225,9.906,9.906,0,0,1,2.546-3.226,11.215,11.215,0,0,1,3.842-2.049,16.764,16.764,0,0,1,9.493,0,11.226,11.226,0,0,1,3.843,2.048,9.934,9.934,0,0,1,2.546,3.225,9.482,9.482,0,0,1,.937,4.227,10.406,10.406,0,0,1-.294,2.574,6.564,6.564,0,0,1-1.1,2.3,8.662,8.662,0,0,1-1.889,1.823l-.035.026a9.15,9.15,0,0,1,4.586,8.034A9.283,9.283,0,0,1,72.284,73a10.466,10.466,0,0,1-2.875,3.408,13.589,13.589,0,0,1-4.2,2.176A16.911,16.911,0,0,1,60,79.354ZM60,65.5a2,2,0,0,0-1.525.625,2.057,2.057,0,0,0-.627,1.526,2.351,2.351,0,0,0,.637,1.62,2.185,2.185,0,0,0,.694.484,1.936,1.936,0,0,0,.821.172,1.837,1.837,0,0,0,.776-.17,2.489,2.489,0,0,0,.742-.508,2.178,2.178,0,0,0,.469-.7,2.141,2.141,0,0,0,.166-.855,2.074,2.074,0,0,0-.637-1.557A2.028,2.028,0,0,0,60,65.5Zm0-13.363a1.752,1.752,0,0,0-1.333.534,1.7,1.7,0,0,0-.532,1.289,1.837,1.837,0,0,0,.544,1.364A1.719,1.719,0,0,0,60,55.867a1.628,1.628,0,0,0,.7-.142,1.989,1.989,0,0,0,.608-.43,2.108,2.108,0,0,0,.416-.633,1.639,1.639,0,0,0,.14-.661,1.766,1.766,0,0,0-.544-1.322A1.717,1.717,0,0,0,60,52.137Z"/><path class="cls-9" d="M60,45.229a14.194,14.194,0,0,1,4.284.615,9.632,9.632,0,0,1,3.32,1.763,8.323,8.323,0,0,1,2.153,2.726,7.92,7.92,0,0,1,.779,3.546,8.885,8.885,0,0,1-.247,2.193,5,5,0,0,1-.84,1.762,7.113,7.113,0,0,1-1.558,1.5,14.064,14.064,0,0,1-2.4,1.353q6.31,2.46,6.313,7.952a7.737,7.737,0,0,1-.883,3.649,8.919,8.919,0,0,1-2.459,2.91,12.042,12.042,0,0,1-3.73,1.927,16.411,16.411,0,0,1-9.387.021A12,12,0,0,1,51.6,75.235a9.027,9.027,0,0,1-2.5-2.91,7.672,7.672,0,0,1-.9-3.69q0-5.615,6.109-7.952-4.839-2.007-4.838-6.8a7.907,7.907,0,0,1,.779-3.546A8.32,8.32,0,0,1,52.4,47.607a9.651,9.651,0,0,1,3.32-1.763A14.2,14.2,0,0,1,60,45.229M60,57.4a3.142,3.142,0,0,0,1.352-.287,3.511,3.511,0,0,0,1.067-.759,3.665,3.665,0,0,0,.717-1.086A3.156,3.156,0,0,0,63.4,54a3.305,3.305,0,0,0-.983-2.4A3.253,3.253,0,0,0,60,50.6a3.288,3.288,0,0,0-2.419.983,3.243,3.243,0,0,0-.983,2.378,3.356,3.356,0,0,0,.983,2.438A3.251,3.251,0,0,0,60,57.4m0,14.06a3.375,3.375,0,0,0,1.414-.308,3.977,3.977,0,0,0,1.189-.82,3.7,3.7,0,0,0,1.087-2.644A3.6,3.6,0,0,0,62.6,65.048a3.679,3.679,0,0,0-6.292,2.6,3.891,3.891,0,0,0,1.066,2.685,3.715,3.715,0,0,0,1.168.82A3.478,3.478,0,0,0,60,71.464m0-29.309a17.3,17.3,0,0,0-5.21.758,12.73,12.73,0,0,0-4.364,2.334,11.425,11.425,0,0,0-2.939,3.725,10.993,10.993,0,0,0-1.1,4.907,9.825,9.825,0,0,0,2.319,6.552,10.572,10.572,0,0,0-3.59,8.2,10.744,10.744,0,0,0,1.269,5.145,12.11,12.11,0,0,0,3.334,3.892,15.089,15.089,0,0,0,4.7,2.4,19.478,19.478,0,0,0,11.257-.028,15.157,15.157,0,0,0,4.673-2.427,12,12,0,0,0,3.292-3.908,10.815,10.815,0,0,0,1.234-5.076A10.424,10.424,0,0,0,71.214,60.5a9.308,9.308,0,0,0,.7-.831,8.106,8.106,0,0,0,1.352-2.836,11.978,11.978,0,0,0,.342-2.954,11,11,0,0,0-1.095-4.905,11.451,11.451,0,0,0-2.939-3.726,12.731,12.731,0,0,0-4.367-2.335A17.289,17.289,0,0,0,60,42.155Zm0,12.174c-.143,0-.153-.01-.223-.081a.311.311,0,0,1-.105-.287.2.2,0,0,1,.083-.2c.064-.064.084-.083.245-.083.143,0,.156.012.224.082a.263.263,0,0,1,.1.246.642.642,0,0,1-.13.231.477.477,0,0,1-.138.1h0c-.006,0-.026,0-.057,0ZM60,68.39a.413.413,0,0,1-.183-.033.674.674,0,0,1-.218-.145.744.744,0,0,1-.157-.253.779.779,0,0,1-.057-.308.529.529,0,0,1,.186-.449A.48.48,0,0,1,60,67.037a.5.5,0,0,1,.431.187.547.547,0,0,1,.185.468.6.6,0,0,1-.042.249.644.644,0,0,1-.145.221.922.922,0,0,1-.284.194A.322.322,0,0,1,60,68.39Z"/><g id="layer1"><path id="path8735" class="cls-10" d="M26.225,62.348c-.63,6.261-5.239,4.544-3.068,12.805C28.6,71.994,27.37,67.5,26.225,62.348Zm67.277,0c-1.145,5.154-2.379,9.646,3.068,12.805C98.741,66.892,94.132,68.609,93.5,62.348ZM13.121,64.355c1.077,10.125,4.738,13.4,9.6,13.5C21.851,68.814,18.5,71.266,13.121,64.355Zm93.485,0c-5.378,6.911-8.734,4.459-9.6,13.5C101.864,77.751,105.529,74.48,106.606,64.355ZM29.5,70.547c1.125,6.9-4.318,6.376.388,14.618C34.825,80.208,32.211,75.749,29.5,70.547Zm60.726,0c-2.712,5.2-5.33,9.661-.393,14.618C94.538,76.923,89.1,77.447,90.226,70.547ZM16.008,76.46c4.068,10.557,8.94,13.014,14.183,11.725C26.662,78.734,23.768,82.33,16.008,76.46Zm87.706,0c-7.759,5.87-10.649,2.274-14.178,11.725C94.779,89.474,99.647,87.017,103.714,76.46ZM35.053,77.989c3.315,7.025-2.655,8.136,4.9,15.5C43.7,86.681,39.542,82.714,35.053,77.989Zm49.616,0c-4.489,4.726-8.65,8.692-4.895,15.5C87.324,86.125,81.354,85.014,84.669,77.989ZM42.7,83.925c5.8,6.388-.18,9.509,10.234,14.879C54.712,90.352,49,87.488,42.7,83.925Zm34.329,0C70.723,87.488,65.015,90.352,66.794,98.8c10.414-5.37,4.43-8.491,10.234-14.879ZM22.462,88.441C30.039,98.472,35.993,99.6,41.2,96.621,34.535,87.608,32.546,92.334,22.462,88.441Zm74.8,0c-10.085,3.893-12.068-.833-18.732,8.18C83.735,99.6,89.684,98.471,97.262,88.441ZM46.354,97.852c-3.435-.013-6.525,1.78-13.638,1.269,11.309,8.2,18,7.463,22.566,2.6-4.066-3.011-6.577-3.863-8.928-3.872Zm27.016,0c-2.35.009-4.858.861-8.923,3.872,4.562,4.86,11.257,5.593,22.566-2.6-7.113.511-10.208-1.282-13.643-1.269Zm-16.721,4.341c.809.745,1.621,1.44,2.428,2.1-6.524,3.191-15.507,7.452-17.576,7.115l1.713,7.068c-.028-4.433,8.019-6.609,16.786-13.444,8.768,6.837,16.815,9.011,16.786,13.444l1.714-7.068c-2.069.337-11.052-3.923-17.577-7.115.808-.657,1.619-1.352,2.429-2.1-.938.459-2.106,1.036-3.352,1.647-1.245-.611-2.415-1.189-3.352-1.647Z"/></g></g></g></g></svg>