<svg xmlns="http://www.w3.org/2000/svg" xmlns:xlink="http://www.w3.org/1999/xlink" viewBox="0 0 120 120"><defs><style>.cls-1{isolation:isolate;}.cls-2{fill:none;}.cls-3{fill:#ef165e;}.cls-4{opacity:0.4;fill:url(#무제_그라디언트_3);}.cls-4,.cls-5{mix-blend-mode:overlay;}.cls-5{fill:url(#무제_그라디언트_3-2);}.cls-6{fill:url(#무제_그라디언트_130);}.cls-7{fill:#fff;}</style><linearGradient id="무제_그라디언트_3" x1="60" y1="60" x2="60" y2="110" gradientUnits="userSpaceOnUse"><stop offset="0" stop-color="#fff" stop-opacity="0.2"/><stop offset="1" stop-color="#fff"/></linearGradient><linearGradient id="무제_그라디언트_3-2" x1="60" y1="25.009" x2="60" y2="94.991" gradientTransform="translate(60 144.853) rotate(-135)" xlink:href="#무제_그라디언트_3"/><linearGradient id="무제_그라디언트_130" x1="59.979" y1="78.535" x2="59.979" y2="43.692" gradientUnits="userSpaceOnUse"><stop offset="0" stop-color="#2a385f"/><stop offset="1" stop-color="#15202b"/></linearGradient></defs><title>c9</title><g class="cls-1"><g id="레이어_2" data-name="레이어 2"><g id="레이어_1-2" data-name="레이어 1"><rect class="cls-2" width="120" height="120"/><rect class="cls-3" x="24.645" y="24.645" width="70.711" height="70.711" transform="translate(144.853 60) rotate(135)"/><polygon class="cls-4" points="10 60 60 110 110 60 10 60"/><rect class="cls-5" x="35.258" y="35.258" width="49.485" height="49.485" transform="translate(144.853 60) rotate(135)"/><path class="cls-6" d="M48.468,78.535l7.941-9.128a11.462,11.462,0,0,1-7.728-3.689,12.551,12.551,0,0,1-2.453-3.988,13.4,13.4,0,0,1-.882-4.859A13.1,13.1,0,0,1,46.37,51.7a12.326,12.326,0,0,1,2.972-4.213,13.891,13.891,0,0,1,4.629-2.794,18.586,18.586,0,0,1,12.017,0,14.067,14.067,0,0,1,4.621,2.767A12.225,12.225,0,0,1,73.584,51.6a12.489,12.489,0,0,1,1.029,5.021,17.547,17.547,0,0,1-1.269,6.226,23.449,23.449,0,0,1-3.833,6.431l-7.639,9.253ZM60,53.12a3.3,3.3,0,0,0-1.364.278,3.78,3.78,0,0,0-1.945,1.943,3.494,3.494,0,0,0,0,2.727,3.775,3.775,0,0,0,1.946,1.947,3.479,3.479,0,0,0,2.728,0,3.754,3.754,0,0,0,1.158-.788,3.792,3.792,0,0,0,.79-1.159,3.5,3.5,0,0,0,0-2.728A3.784,3.784,0,0,0,61.364,53.4,3.307,3.307,0,0,0,60,53.12Z"/><path class="cls-7" d="M59.959,45.229a15.652,15.652,0,0,1,5.493.9,12.453,12.453,0,0,1,4.119,2.459,10.646,10.646,0,0,1,2.6,3.628,10.9,10.9,0,0,1,.9,4.407A15.957,15.957,0,0,1,71.908,62.3a21.788,21.788,0,0,1-3.587,6.005L61.148,77h-9.3l8.773-10.084h-.165a6.206,6.206,0,0,1-1.885.84,6.944,6.944,0,0,1-1.312.144,9.967,9.967,0,0,1-7.44-3.218,11.009,11.009,0,0,1-2.153-3.505,11.806,11.806,0,0,1-.778-4.3,11.5,11.5,0,0,1,.9-4.571,10.721,10.721,0,0,1,2.6-3.689,12.269,12.269,0,0,1,4.12-2.48,15.51,15.51,0,0,1,5.451-.9M60,61.831a4.85,4.85,0,0,0,1.989-.41A5.312,5.312,0,0,0,64.715,58.7a5.038,5.038,0,0,0,0-3.977,5.315,5.315,0,0,0-2.726-2.725,5.025,5.025,0,0,0-3.976,0,5.312,5.312,0,0,0-2.727,2.725,5.027,5.027,0,0,0,0,3.977,5.309,5.309,0,0,0,2.727,2.726,4.834,4.834,0,0,0,1.987.41m-.041-19.676a18.644,18.644,0,0,0-6.525,1.095A15.4,15.4,0,0,0,48.3,46.356a13.836,13.836,0,0,0-3.34,4.737,14.621,14.621,0,0,0-1.148,5.778,14.923,14.923,0,0,0,.986,5.416,14.088,14.088,0,0,0,2.756,4.473,13.025,13.025,0,0,0,4.277,3.078,12.4,12.4,0,0,0,1.641.607L49.523,74.98l-4.43,5.092H62.6l.922-1.117,7.173-8.69A25.018,25.018,0,0,0,74.78,63.4a19.086,19.086,0,0,0,1.371-6.775,14.022,14.022,0,0,0-1.158-5.635,13.768,13.768,0,0,0-3.344-4.666,15.6,15.6,0,0,0-5.122-3.074,18.8,18.8,0,0,0-6.568-1.095ZM60,58.757a1.779,1.779,0,0,1-.737-.145A2.223,2.223,0,0,1,58.1,57.451a1.963,1.963,0,0,1,0-1.481A2.241,2.241,0,0,1,59.26,54.8a1.95,1.95,0,0,1,1.483,0,2.237,2.237,0,0,1,1.164,1.167,1.961,1.961,0,0,1,0,1.48,2.243,2.243,0,0,1-.469.689,2.266,2.266,0,0,1-.693.471,1.792,1.792,0,0,1-.741.146Z"/></g></g></g></svg>