<svg xmlns="http://www.w3.org/2000/svg" xmlns:xlink="http://www.w3.org/1999/xlink" viewBox="0 0 120 120"><defs><style>.cls-1{isolation:isolate;}.cls-2{fill:none;}.cls-3{fill:#ef165e;}.cls-4{opacity:0.4;fill:url(#무제_그라디언트_3);}.cls-4,.cls-7{mix-blend-mode:overlay;}.cls-5{fill:url(#무제_그라디언트_102);}.cls-6{fill:url(#무제_그라디언트_102-2);}.cls-7{fill:url(#무제_그라디언트_3-2);}.cls-8{fill:url(#무제_그라디언트_130);}.cls-9{fill:#fff;}.cls-10{fill:url(#무제_그라디언트_102-3);}</style><linearGradient id="무제_그라디언트_3" x1="60" y1="60" x2="60" y2="103.84" gradientUnits="userSpaceOnUse"><stop offset="0" stop-color="#fff" stop-opacity="0.2"/><stop offset="1" stop-color="#fff"/></linearGradient><linearGradient id="무제_그라디언트_102" x1="110" y1="85" x2="10" y2="85" gradientUnits="userSpaceOnUse"><stop offset="0" stop-color="#f0e755"/><stop offset="0.223" stop-color="#fffb80"/><stop offset="0.44" stop-color="#d17600"/><stop offset="0.692" stop-color="#ffe681"/><stop offset="0.993" stop-color="#d5a244"/></linearGradient><linearGradient id="무제_그라디언트_102-2" x1="10" y1="35" x2="110" y2="35" xlink:href="#무제_그라디언트_102"/><linearGradient id="무제_그라디언트_3-2" x1="60" y1="25.009" x2="60" y2="94.991" gradientTransform="translate(60 144.853) rotate(-135)" xlink:href="#무제_그라디언트_3"/><linearGradient id="무제_그라디언트_130" x1="59.98" y1="78.535" x2="59.98" y2="43.692" gradientUnits="userSpaceOnUse"><stop offset="0" stop-color="#2a385f"/><stop offset="1" stop-color="#15202b"/></linearGradient><linearGradient id="무제_그라디언트_102-3" x1="59.862" y1="118.473" x2="59.862" y2="18.128" xlink:href="#무제_그라디언트_102"/></defs><title>c9g</title><g class="cls-1"><g id="레이어_2" data-name="레이어 2"><g id="레이어_1-2" data-name="레이어 1"><rect class="cls-2" width="120" height="120"/><rect class="cls-3" x="29" y="29" width="61.999" height="61.999" transform="translate(144.853 60) rotate(135)"/><polygon class="cls-4" points="16.16 60 60 103.84 103.84 60 16.16 60"/><polygon class="cls-5" points="103.84 60 60 103.84 16.16 60 10 60 60 110 110 60 103.84 60"/><polygon class="cls-6" points="60 10 10 60 16.16 60 60 16.16 103.84 60 110 60 60 10"/><rect class="cls-7" x="35.258" y="35.258" width="49.485" height="49.485" transform="translate(144.853 60) rotate(135)"/><path class="cls-8" d="M48.469,78.535l7.94-9.127a11.369,11.369,0,0,1-3.948-.97,11.529,11.529,0,0,1-3.779-2.719,12.555,12.555,0,0,1-2.453-3.989,13.362,13.362,0,0,1-.883-4.859A13.091,13.091,0,0,1,46.371,51.7a12.31,12.31,0,0,1,2.973-4.212,13.836,13.836,0,0,1,4.627-2.793,18.568,18.568,0,0,1,12.017,0,14.063,14.063,0,0,1,4.621,2.765A12.218,12.218,0,0,1,73.584,51.6a12.511,12.511,0,0,1,1.03,5.021,17.552,17.552,0,0,1-1.269,6.227,23.52,23.52,0,0,1-3.833,6.43l-7.639,9.253ZM60,53.121a3.3,3.3,0,0,0-1.366.277,3.759,3.759,0,0,0-1.154.788,3.81,3.81,0,0,0-.791,1.158,3.5,3.5,0,0,0,0,2.726,3.768,3.768,0,0,0,1.946,1.946,3.489,3.489,0,0,0,2.727,0,3.775,3.775,0,0,0,1.947-1.946,3.488,3.488,0,0,0,0-2.729A3.781,3.781,0,0,0,61.364,53.4,3.3,3.3,0,0,0,60,53.121Z"/><path class="cls-9" d="M59.96,45.23a15.67,15.67,0,0,1,5.492.9,12.506,12.506,0,0,1,4.12,2.459,10.656,10.656,0,0,1,2.6,3.628,10.921,10.921,0,0,1,.9,4.407A15.966,15.966,0,0,1,71.909,62.3a21.872,21.872,0,0,1-3.587,6L61.149,77h-9.3l8.771-10.084h-.164a6.17,6.17,0,0,1-1.885.84,6.944,6.944,0,0,1-1.312.144,9.972,9.972,0,0,1-7.44-3.218,11,11,0,0,1-2.152-3.505,11.8,11.8,0,0,1-.779-4.3,11.519,11.519,0,0,1,.9-4.571,10.734,10.734,0,0,1,2.6-3.689,12.275,12.275,0,0,1,4.12-2.48,15.543,15.543,0,0,1,5.452-.9M60,61.831a4.841,4.841,0,0,0,1.987-.41A5.309,5.309,0,0,0,64.715,58.7a5.025,5.025,0,0,0,0-3.976,5.309,5.309,0,0,0-2.727-2.726,5.025,5.025,0,0,0-3.976,0,5.312,5.312,0,0,0-2.726,2.726,5.036,5.036,0,0,0,0,3.976,5.312,5.312,0,0,0,2.726,2.726,4.843,4.843,0,0,0,1.989.41M59.96,42.155a18.671,18.671,0,0,0-6.525,1.095A15.393,15.393,0,0,0,48.3,46.358a13.8,13.8,0,0,0-3.339,4.735,14.615,14.615,0,0,0-1.15,5.778,14.911,14.911,0,0,0,.988,5.416,14.1,14.1,0,0,0,2.754,4.472,13.047,13.047,0,0,0,4.279,3.08,12.436,12.436,0,0,0,1.64.606L49.524,74.98l-4.43,5.093H62.6l.923-1.118,7.173-8.691A25.04,25.04,0,0,0,74.78,63.4a19.083,19.083,0,0,0,1.371-6.777A14.048,14.048,0,0,0,75,50.992a13.782,13.782,0,0,0-3.345-4.668,15.62,15.62,0,0,0-5.123-3.073,18.792,18.792,0,0,0-6.567-1.1ZM60,58.757a1.784,1.784,0,0,1-.74-.145A2.233,2.233,0,0,1,58.1,57.448a1.967,1.967,0,0,1,0-1.48,2.294,2.294,0,0,1,.474-.7,2.255,2.255,0,0,1,.692-.469,1.966,1.966,0,0,1,1.482,0,2.233,2.233,0,0,1,1.162,1.164,1.956,1.956,0,0,1,0,1.478,2.233,2.233,0,0,1-1.164,1.165,1.775,1.775,0,0,1-.74.146Z"/><g id="layer1"><path id="path8735" class="cls-10" d="M40.716,18.128c-.168.131-.333.263-.493.4C40.4,18.393,40.569,18.264,40.716,18.128Zm38.3,0c.147.136.318.265.492.4C79.346,18.391,79.181,18.259,79.013,18.128ZM40.2,18.549c-3.659,2.755-12.8,4.819-10.836,9.108C34.279,28.271,35.271,22.718,40.2,18.549Zm39.334,0c4.924,4.169,5.92,9.723,10.841,9.108,1.958-4.289-7.182-6.353-10.841-9.108ZM28.341,23.056c-4.6,3.87-4.992,6.744-3.437,9.156,4.138-3.409,1.829-4.241,3.437-9.156Zm63.042,0c1.607,4.914-.7,5.747,3.442,9.155C96.38,29.8,95.984,26.926,91.383,23.056Zm-67.838,5.26c-4.377,5.047-4.308,8.27-2.182,10.646C25.312,34.5,22.635,33.988,23.545,28.316Zm72.633,0c.909,5.672-1.767,6.186,2.182,10.646C100.485,36.586,100.554,33.363,96.178,28.316Zm-62.531.5c-2.249,1.209-3.274.246-4.776.762a6.209,6.209,0,0,0-2.5,1.96c3.346,1.623,5.132-.46,7.276-2.723Zm52.434,0c2.145,2.262,3.931,4.345,7.276,2.722a6.221,6.221,0,0,0-2.5-1.96c-1.5-.516-2.522.447-4.772-.762ZM30.368,33.707c-2.054,1.563-3.3.984-4.687,1.487-.829.3-1.7.992-2.826,2.769,3.953,1.2,5.552-1.4,7.513-4.256Zm58.99,0c1.96,2.856,3.559,5.456,7.513,4.256-1.123-1.777-2-2.467-2.827-2.769-1.381-.5-2.633.076-4.686-1.487ZM19.1,35.023c-3.815,6.368-3.12,9.882-.336,12.072C22.222,41.453,19.2,41.406,19.1,35.023Zm81.537,0c-.1,6.383-3.125,6.43.336,12.072C103.755,44.905,104.45,41.391,100.634,35.023ZM27.6,39.6c-3.113,3.369-5.039.349-7.4,6.112,4.558.55,5.805-2.609,7.4-6.112Zm64.528,0c1.594,3.5,2.842,6.662,7.4,6.112-2.361-5.763-4.286-2.743-7.4-6.112ZM15.521,43.222c-2.812,7.753-1.305,11.432,2.2,13.231,2.579-6.887-.735-6.291-2.2-13.231Zm88.685,0c-1.461,6.94-4.775,6.343-2.2,13.231,3.5-1.8,5.008-5.478,2.2-13.231Zm-78.431,3.19c-2.681,4.335-5.426,1.447-6.779,8.233C24.083,54.279,24.778,50.571,25.775,46.412Zm68.177,0c1,4.159,1.692,7.867,6.779,8.233C99.378,47.859,96.633,50.747,93.952,46.412ZM13.268,52.743C12,61.819,14.492,65.472,18.712,66.618,19.924,58.537,16.46,59.949,13.268,52.743Zm93.188,0c-3.192,7.2-6.651,5.794-5.439,13.875C105.237,65.472,107.72,61.819,106.456,52.743Zm-81.305,1.1c-1.913,5.33-5.565,2.822-5.468,10.509C25.127,62.782,25.029,58.6,25.151,53.846Zm69.427,0c.122,4.75.023,8.936,5.468,10.509C100.142,56.668,96.491,59.176,94.578,53.846Zm-68.353,8.5c-.63,6.261-5.239,4.544-3.068,12.805C28.6,71.994,27.37,67.5,26.225,62.348Zm67.277,0c-1.145,5.154-2.379,9.646,3.068,12.805C98.741,66.892,94.132,68.609,93.5,62.348ZM13.121,64.355c1.077,10.125,4.738,13.4,9.6,13.5C21.851,68.814,18.5,71.266,13.121,64.355Zm93.485,0c-5.378,6.911-8.734,4.459-9.6,13.5C101.864,77.751,105.529,74.48,106.606,64.355ZM29.5,70.547c1.125,6.9-4.318,6.376.388,14.618C34.825,80.208,32.211,75.749,29.5,70.547Zm60.726,0c-2.712,5.2-5.33,9.661-.393,14.618C94.538,76.923,89.1,77.447,90.226,70.547ZM16.008,76.46c4.068,10.557,8.94,13.014,14.183,11.725C26.662,78.734,23.768,82.33,16.008,76.46Zm87.706,0c-7.759,5.87-10.649,2.274-14.178,11.725C94.779,89.474,99.647,87.017,103.714,76.46ZM35.053,77.989c3.315,7.025-2.655,8.136,4.9,15.5C43.7,86.681,39.542,82.714,35.053,77.989Zm49.616,0c-4.489,4.726-8.65,8.692-4.895,15.5C87.324,86.125,81.354,85.014,84.669,77.989ZM42.7,83.925c5.8,6.388-.18,9.509,10.234,14.879C54.712,90.352,49,87.488,42.7,83.925Zm34.329,0C70.723,87.488,65.015,90.352,66.794,98.8c10.414-5.37,4.43-8.491,10.234-14.879ZM22.462,88.441C30.039,98.472,35.993,99.6,41.2,96.621,34.535,87.608,32.546,92.334,22.462,88.441Zm74.8,0c-10.085,3.893-12.068-.833-18.732,8.18C83.735,99.6,89.684,98.471,97.262,88.441ZM46.354,97.852c-3.435-.013-6.525,1.78-13.638,1.269,11.309,8.2,18,7.463,22.566,2.6-4.066-3.011-6.577-3.863-8.928-3.872Zm27.016,0c-2.35.009-4.858.861-8.923,3.872,4.562,4.86,11.257,5.593,22.566-2.6-7.113.511-10.208-1.282-13.643-1.269Zm-16.721,4.341c.809.745,1.621,1.44,2.428,2.1-6.524,3.191-15.507,7.452-17.576,7.115l1.713,7.068c-.028-4.433,8.019-6.609,16.786-13.444,8.768,6.837,16.815,9.011,16.786,13.444l1.714-7.068c-2.069.337-11.052-3.923-17.577-7.115.808-.657,1.619-1.352,2.429-2.1-.938.459-2.106,1.036-3.352,1.647-1.245-.611-2.415-1.189-3.352-1.647Z"/></g></g></g></g></svg>