<svg xmlns="http://www.w3.org/2000/svg" xmlns:xlink="http://www.w3.org/1999/xlink" viewBox="0 0 120 120"><defs><style>.cls-1{isolation:isolate;}.cls-2{fill:none;}.cls-3{fill:#ef165e;}.cls-4{opacity:0.4;fill:url(#무제_그라디언트_3);}.cls-4,.cls-7{mix-blend-mode:overlay;}.cls-5{fill:url(#무제_그라디언트_51);}.cls-6{fill:url(#무제_그라디언트_51-2);}.cls-7{fill:url(#무제_그라디언트_3-2);}.cls-8{fill:url(#무제_그라디언트_130);}.cls-9{fill:#fff;}.cls-10{fill:url(#무제_그라디언트_51-3);}</style><linearGradient id="무제_그라디언트_3" x1="60" y1="60" x2="60" y2="103.84" gradientUnits="userSpaceOnUse"><stop offset="0" stop-color="#fff" stop-opacity="0.2"/><stop offset="1" stop-color="#fff"/></linearGradient><linearGradient id="무제_그라디언트_51" x1="110" y1="85" x2="10" y2="85" gradientUnits="userSpaceOnUse"><stop offset="0" stop-color="#f5f5f5"/><stop offset="0.234" stop-color="#f0f3f2"/><stop offset="0.441" stop-color="#c2c3c5"/><stop offset="0.786" stop-color="#f9f9f9"/><stop offset="0.998" stop-color="#dadbdc"/></linearGradient><linearGradient id="무제_그라디언트_51-2" x1="10" y1="35" x2="110" y2="35" xlink:href="#무제_그라디언트_51"/><linearGradient id="무제_그라디언트_3-2" x1="60" y1="25.009" x2="60" y2="94.991" gradientTransform="translate(60 144.853) rotate(-135)" xlink:href="#무제_그라디언트_3"/><linearGradient id="무제_그라디언트_130" x1="59.979" y1="78.535" x2="59.979" y2="43.692" gradientUnits="userSpaceOnUse"><stop offset="0" stop-color="#2a385f"/><stop offset="1" stop-color="#15202b"/></linearGradient><linearGradient id="무제_그라디언트_51-3" x1="59.864" y1="118.473" x2="59.864" y2="62.348" xlink:href="#무제_그라디언트_51"/></defs><title>c9s</title><g class="cls-1"><g id="레이어_2" data-name="레이어 2"><g id="레이어_1-2" data-name="레이어 1"><rect class="cls-2" width="120" height="120"/><rect class="cls-3" x="29" y="29" width="61.999" height="61.999" transform="translate(144.853 60) rotate(135)"/><polygon class="cls-4" points="16.16 60 60 103.84 103.84 60 16.16 60"/><polygon class="cls-5" points="103.84 60 60 103.84 16.16 60 10 60 60 110 110 60 103.84 60"/><polygon class="cls-6" points="60 10 10 60 16.16 60 60 16.16 103.84 60 110 60 60 10"/><rect class="cls-7" x="35.258" y="35.258" width="49.485" height="49.485" transform="translate(144.853 60) rotate(135)"/><path class="cls-8" d="M48.468,78.535l7.94-9.128a11.4,11.4,0,0,1-3.948-.969,11.513,11.513,0,0,1-3.779-2.72,12.559,12.559,0,0,1-2.452-3.987,13.391,13.391,0,0,1-.883-4.86A13.11,13.11,0,0,1,46.37,51.7a12.326,12.326,0,0,1,2.972-4.213,13.891,13.891,0,0,1,4.629-2.794,18.586,18.586,0,0,1,12.017,0,14.064,14.064,0,0,1,4.621,2.767A12.245,12.245,0,0,1,73.584,51.6a12.489,12.489,0,0,1,1.029,5.021,17.552,17.552,0,0,1-1.269,6.227,23.439,23.439,0,0,1-3.834,6.43l-7.637,9.253ZM60,53.121a3.283,3.283,0,0,0-1.363.277,3.784,3.784,0,0,0-1.946,1.944,3.493,3.493,0,0,0,0,2.729,3.777,3.777,0,0,0,1.945,1.944,3.494,3.494,0,0,0,2.727,0,3.767,3.767,0,0,0,1.159-.789,3.813,3.813,0,0,0,.791-1.159,3.506,3.506,0,0,0,0-2.727A3.777,3.777,0,0,0,61.365,53.4,3.3,3.3,0,0,0,60,53.121Z"/><path class="cls-9" d="M59.959,45.229a15.675,15.675,0,0,1,5.493.9,12.487,12.487,0,0,1,4.119,2.459,10.656,10.656,0,0,1,2.6,3.628,10.9,10.9,0,0,1,.9,4.407A15.957,15.957,0,0,1,71.908,62.3a21.813,21.813,0,0,1-3.586,6.006L61.148,77h-9.3l8.773-10.083h-.165a6.206,6.206,0,0,1-1.885.84,6.936,6.936,0,0,1-1.312.143,9.952,9.952,0,0,1-7.44-3.217,11.006,11.006,0,0,1-2.152-3.505,11.778,11.778,0,0,1-.779-4.3,11.5,11.5,0,0,1,.9-4.571,10.721,10.721,0,0,1,2.6-3.689,12.311,12.311,0,0,1,4.12-2.48,15.533,15.533,0,0,1,5.451-.9M60,61.831a4.819,4.819,0,0,0,1.989-.411A5.3,5.3,0,0,0,64.715,58.7a5.036,5.036,0,0,0,0-3.976,5.312,5.312,0,0,0-2.726-2.726,5.025,5.025,0,0,0-3.976,0,5.309,5.309,0,0,0-2.727,2.726,5.025,5.025,0,0,0,0,3.976,5.293,5.293,0,0,0,2.727,2.725A4.806,4.806,0,0,0,60,61.831m-.041-19.676a18.644,18.644,0,0,0-6.525,1.095A15.42,15.42,0,0,0,48.3,46.357a13.827,13.827,0,0,0-3.34,4.737,14.612,14.612,0,0,0-1.148,5.777,14.923,14.923,0,0,0,.986,5.416A14.126,14.126,0,0,0,47.55,66.76a13.056,13.056,0,0,0,4.278,3.079,12.594,12.594,0,0,0,1.641.606L49.523,74.98l-4.43,5.092H62.6l.922-1.117,7.173-8.69A24.983,24.983,0,0,0,74.78,63.4a19.082,19.082,0,0,0,1.371-6.775,14.022,14.022,0,0,0-1.158-5.635,13.777,13.777,0,0,0-3.344-4.666,15.6,15.6,0,0,0-5.122-3.073,18.778,18.778,0,0,0-6.568-1.1ZM60,58.756a1.774,1.774,0,0,1-.734-.143A2.221,2.221,0,0,1,58.1,57.451a1.961,1.961,0,0,1,0-1.48A2.238,2.238,0,0,1,59.26,54.8a1.962,1.962,0,0,1,1.483,0,2.234,2.234,0,0,1,1.164,1.168,1.958,1.958,0,0,1,0,1.479,2.227,2.227,0,0,1-1.16,1.158,1.776,1.776,0,0,1-.743.147Z"/><g id="layer1"><path id="path8735" class="cls-10" d="M26.225,62.348c-.63,6.261-5.239,4.544-3.068,12.805C28.6,71.994,27.37,67.5,26.225,62.348Zm67.277,0c-1.145,5.154-2.379,9.646,3.068,12.805C98.741,66.892,94.132,68.609,93.5,62.348ZM13.121,64.355c1.077,10.125,4.738,13.4,9.6,13.5C21.851,68.814,18.5,71.266,13.121,64.355Zm93.485,0c-5.378,6.911-8.734,4.459-9.6,13.5C101.864,77.751,105.529,74.48,106.606,64.355ZM29.5,70.547c1.125,6.9-4.318,6.376.388,14.618C34.825,80.208,32.211,75.749,29.5,70.547Zm60.726,0c-2.712,5.2-5.33,9.661-.393,14.618C94.538,76.923,89.1,77.447,90.226,70.547ZM16.008,76.46c4.068,10.557,8.94,13.014,14.183,11.725C26.662,78.734,23.768,82.33,16.008,76.46Zm87.706,0c-7.759,5.87-10.649,2.274-14.178,11.725C94.779,89.474,99.647,87.017,103.714,76.46ZM35.053,77.989c3.315,7.025-2.655,8.136,4.9,15.5C43.7,86.681,39.542,82.714,35.053,77.989Zm49.616,0c-4.489,4.726-8.65,8.692-4.895,15.5C87.324,86.125,81.354,85.014,84.669,77.989ZM42.7,83.925c5.8,6.388-.18,9.509,10.234,14.879C54.712,90.352,49,87.488,42.7,83.925Zm34.329,0C70.723,87.488,65.015,90.352,66.794,98.8c10.414-5.37,4.43-8.491,10.234-14.879ZM22.462,88.441C30.039,98.472,35.993,99.6,41.2,96.621,34.535,87.608,32.546,92.334,22.462,88.441Zm74.8,0c-10.085,3.893-12.068-.833-18.732,8.18C83.735,99.6,89.684,98.471,97.262,88.441ZM46.354,97.852c-3.435-.013-6.525,1.78-13.638,1.269,11.309,8.2,18,7.463,22.566,2.6-4.066-3.011-6.577-3.863-8.928-3.872Zm27.016,0c-2.35.009-4.858.861-8.923,3.872,4.562,4.86,11.257,5.593,22.566-2.6-7.113.511-10.208-1.282-13.643-1.269Zm-16.721,4.341c.809.745,1.621,1.44,2.428,2.1-6.524,3.191-15.507,7.452-17.576,7.115l1.713,7.068c-.028-4.433,8.019-6.609,16.786-13.444,8.768,6.837,16.815,9.011,16.786,13.444l1.714-7.068c-2.069.337-11.052-3.923-17.577-7.115.808-.657,1.619-1.352,2.429-2.1-.938.459-2.106,1.036-3.352,1.647-1.245-.611-2.415-1.189-3.352-1.647Z"/></g></g></g></g></svg>